HIERARCHY
ROOT Hips
{
     OFFSET 1.88212 96.90440 -13.34250
     CHANNELS 6 Xposition Yposition Zposition Zrotation Xrotation Yrotation
     JOINT Spine
     {
          OFFSET 0.00000 11.89050 0.00000
          CHANNELS 3 Zrotation Xrotation Yrotation
          JOINT Spine1
          {
               OFFSET -0.00000 25.65740 0.12766
               CHANNELS 3 Zrotation Xrotation Yrotation
               JOINT HEad
               {
                    OFFSET 0.00000 8.73416 0.01134
                    CHANNELS 3 Zrotation Xrotation Yrotation
                    End Site
                    {
                         OFFSET -0.29000 12.77420 2.51395
                    }
               }
               JOINT LeftShoulder1
               {
                    OFFSET 8.99000 -0.36225 -0.22000
                    CHANNELS 3 Zrotation Xrotation Yrotation
                    JOINT LeftArm
                    {
                         OFFSET 10.28270 -0.00338 0.32212
                         CHANNELS 3 Zrotation Xrotation Yrotation
                         JOINT LeftForeArm
                         {
                              OFFSET 32.76690 0.09914 -1.42434
                              CHANNELS 3 Zrotation Xrotation Yrotation
                              JOINT LeftHand
                              {
                                   OFFSET 27.56430 0.08536 1.02216
                                   CHANNELS 3 Zrotation Xrotation Yrotation
                                   End Site
                                   {
                                        OFFSET 16.74430 -0.60000 1.50291
                                   }
                              }
                         }
                    }
               }
               JOINT RightShoulder
               {
                    OFFSET -8.99000 -0.36225 -0.22000
                    CHANNELS 3 Zrotation Xrotation Yrotation
                    JOINT RightArm
                    {
                         OFFSET -10.28270 -0.00338 0.32212
                         CHANNELS 3 Zrotation Xrotation Yrotation
                         JOINT RightForeArm
                         {
                              OFFSET -32.89710 0.09914 -1.42434
                              CHANNELS 3 Zrotation Xrotation Yrotation
                              JOINT RightHand
                              {
                                   OFFSET -27.49210 0.08536 1.02216
                                   CHANNELS 3 Zrotation Xrotation Yrotation
                                   End Site
                                   {
                                        OFFSET -16.63120 -0.60000 1.50291
                                   }
                              }
                         }
                    }
               }
          }
     }
     JOINT LeftUpLeg
     {
          OFFSET 8.94580 -8.66707 0.10165
          CHANNELS 3 Zrotation Xrotation Yrotation
          JOINT LeftLeg
          {
               OFFSET 0.00000 -44.42270 1.37270
               CHANNELS 3 Zrotation Xrotation Yrotation
               JOINT LeftFoot
               {
                    OFFSET -0.25355 -42.09240 -1.46059
                    CHANNELS 3 Zrotation Xrotation Yrotation
                    JOINT LeftToes
                    {
                         OFFSET -0.04000 -4.41509 8.49910
                         CHANNELS 3 Zrotation Xrotation Yrotation
                         End Site
                         {
                              OFFSET 0.08000 -0.04745 9.77979
                         }
                    }
               }
          }
     }
     JOINT RightUpLeg
     {
          OFFSET -8.94580 -8.66707 0.10165
          CHANNELS 3 Zrotation Xrotation Yrotation
          JOINT RightLeg
          {
               OFFSET 0.00000 -44.42270 1.37270
               CHANNELS 3 Zrotation Xrotation Yrotation
               JOINT RightFoot
               {
                    OFFSET 0.25355 -42.09240 -1.46059
                    CHANNELS 3 Zrotation Xrotation Yrotation
                    JOINT RightToes
                    {
                         OFFSET 0.04000 -4.41509 8.49910
                         CHANNELS 3 Zrotation Xrotation Yrotation
                         End Site
                         {
                              OFFSET -0.08000 -0.13745 9.77979
                         }
                    }
               }
          }
     }
}
MOTION
Frames: 19
Frame Time: 0.01667
-256.59003 93.48380 -182.86838 27.01186 5.67298 61.98690 -27.70979 25.96762 10.86870 0.00517 0.00164 -0.00663 -6.36062 8.29835 10.35824 4.76488 9.16186 -1.27398 -75.06693 -62.39498 -55.03624 -29.30965 23.43613 -77.25018 16.19633 6.52629 -17.93036 10.85742 9.56898 -3.59785 71.64167 13.84583 71.47939 -3.87071 26.14791 96.52748 8.47345 13.67668 10.15583 15.67232 -32.56903 35.12797 -226.71759 83.59460 254.30112 -15.36080 0.06682 0.00720 -0.10802 31.12729 -37.74594 -35.34705 10.93142 19.28546 41.80103 0.10734 -50.69743 -0.56190 0.00240 -0.00473 -24.74878 -40.65954 33.71432 
-256.16150 93.21455 -182.86133 23.96595 4.60467 64.37888 -26.17867 24.90051 9.78745 0.00595 0.00149 -0.00668 -4.53491 8.56711 9.77565 5.91661 9.10462 -2.55685 -91.10941 -66.11568 -70.00810 -33.07405 35.75400 -78.34755 18.27451 6.49526 -17.81334 13.24518 9.28173 -5.49868 73.81146 10.43273 70.79275 -1.46412 25.70136 98.57677 10.18384 13.23638 9.19992 8.72610 -30.09240 33.58595 -291.14044 78.46194 320.94263 -13.95091 0.02815 -0.00542 0.63846 18.77214 -40.04007 -32.62505 10.83572 18.32563 41.62830 -1.71322 -49.21833 -0.48435 -0.00193 -0.00444 -22.02606 -43.96300 43.81386 
-255.67270 92.94473 -182.93039 21.23660 3.50280 66.45702 -24.53802 24.00193 8.59077 0.02287 0.00697 -0.01940 -3.06920 8.67038 9.32629 7.29547 9.19436 -3.68341 -116.56813 -65.75485 -92.33108 -36.21919 47.77277 -75.72527 22.26151 9.53025 -10.90471 16.12941 9.04268 -6.93420 78.37975 5.98310 70.33183 3.48739 26.13995 101.49733 18.13833 12.27782 6.69553 3.19022 -26.55665 31.57635 -314.14691 69.03725 347.02505 -15.02811 0.01723 0.04739 2.43095 7.35302 -42.48386 -30.06599 10.49854 17.47248 40.83016 -2.65160 -45.79542 0.44599 -0.03783 -0.01424 -27.46400 -40.56361 33.86223 
-255.16220 92.74101 -183.06218 18.85213 2.43833 68.23483 -22.82938 23.27051 7.32890 0.02413 0.00600 -0.01879 -1.92306 8.66365 8.97066 8.29101 9.22660 -4.44158 -131.75604 -63.14318 -105.43275 -39.70400 55.47278 -72.64217 22.17832 9.05813 -12.04789 18.46897 8.76646 -8.02825 81.48181 3.22376 70.16051 6.68434 27.49973 103.00727 20.98882 12.44763 4.01708 -0.62687 -22.33434 29.36489 -326.30023 58.50157 361.95480 -12.80452 0.01741 -0.07201 2.39081 -2.50570 -46.04411 -27.74843 9.97421 16.73500 40.19719 -3.42830 -42.91126 1.17596 -0.02931 0.00414 -29.33949 -40.29699 33.03877 
-254.67242 92.63317 -183.22437 16.82283 1.46091 69.73093 -21.09208 22.69990 6.04764 0.02343 0.00514 -0.01736 -1.08912 8.57261 8.70755 8.89291 9.21696 -4.95002 -139.83244 -60.54601 -112.13233 -42.52751 60.33156 -70.08621 23.46872 10.54239 -8.56017 20.22029 8.49215 -8.81505 83.53106 1.50486 70.10191 8.73779 29.00123 103.88934 23.07554 11.66905 3.60217 -2.73859 -17.77772 26.94387 -335.17856 47.49205 372.69562 -10.44725 0.01442 -0.10431 0.86248 -11.67904 -49.88696 -25.72256 9.32015 16.11575 39.64745 -3.93368 -40.55471 1.80592 -0.02146 0.00516 -32.07851 -38.75146 28.75030 
-254.24423 92.59506 -183.37614 15.13999 0.59607 70.96873 -19.35292 22.27805 4.78335 0.02189 0.00467 -0.01566 -0.53235 8.42225 8.52191 9.14514 9.17782 -5.23879 -143.85475 -58.57270 -115.25439 -44.08650 63.41373 -68.81421 22.88005 10.00282 -9.62529 21.46697 8.23927 -9.31982 84.77412 0.38617 70.09412 10.10304 30.29625 104.43771 23.25611 11.80962 2.61468 -3.29654 -13.14271 24.18289 -342.90948 36.27884 381.04041 -6.58785 0.00663 -0.18200 -2.46127 -20.08521 -54.53074 -23.99117 8.58312 15.60503 39.13819 -4.12626 -38.70676 2.38682 -0.01623 0.00512 -33.77386 -38.24704 26.94561 
-253.88980 92.58253 -183.48102 13.78183 -0.15724 71.96969 -17.62790 21.98961 3.56669 0.01942 0.00451 -0.01408 -0.20449 8.23123 8.39878 9.07931 9.12516 -5.36712 -145.51457 -57.26023 -116.39716 -44.19832 65.29661 -68.92672 23.29947 10.62394 -7.71754 22.28898 8.02306 -9.59604 85.42896 -0.35954 70.09748 11.02326 31.29952 104.86162 23.57256 11.39899 2.74598 -2.49997 -8.71844 20.92177 -348.73779 26.96687 386.94907 -4.13466 0.01692 -0.10048 -0.76938 -12.32867 -53.86501 -22.52081 7.79958 15.18993 38.66442 -4.00054 -37.33668 2.91859 -0.01197 0.00502 -35.35287 -37.64152 24.66270 
-253.60478 92.55685 -183.51108 12.71957 -0.81709 72.75294 -15.92588 21.81675 2.42393 0.01639 0.00446 -0.01251 -0.05243 8.01464 8.32131 8.74203 9.06833 -5.34856 -145.67604 -56.47724 -116.33851 -43.07137 66.35638 -70.26813 22.78907 10.09785 -8.51205 22.74681 7.85301 -9.67391 85.69260 -0.86980 70.09544 11.63066 32.02010 105.23186 23.13159 11.53126 2.36470 -0.53456 -4.77047 17.03542 -353.99149 19.17945 391.97653 -2.19222 0.02575 -0.06773 -9.53034 -28.41110 -62.65461 -21.25905 7.00274 14.85799 38.25023 -3.57480 -36.39645 3.38323 -0.00822 0.00497 -36.47068 -37.54090 23.22940 
-253.37869 92.49052 -183.45650 11.91894 -1.40847 73.34010 -14.25491 21.74070 1.37168 0.01290 0.00444 -0.01112 -0.02088 7.78374 8.27344 8.18039 9.01399 -5.21305 -144.82646 -56.06910 -115.52970 -41.08414 66.75925 -72.39300 22.93142 10.23501 -7.46297 22.89474 7.73536 -9.59529 85.72058 -1.21087 70.07128 11.98553 32.52769 105.62224 22.97226 11.31677 2.55394 2.41884 -1.52263 12.45525 -359.10516 12.62029 396.75610 -0.51239 0.03016 -0.04963 -6.00727 -20.92322 -58.04094 -20.15159 6.21856 14.59352 37.92668 -2.87882 -35.83239 3.75824 -0.00516 0.00473 -37.37726 -37.65057 21.87807 
-253.21552 92.40215 -183.31155 11.34451 -1.94615 73.75845 -12.63693 21.74417 0.41712 0.00927 0.00441 -0.00976 -0.05537 7.54561 8.23878 7.44355 8.96349 -4.96807 -143.21471 -55.89146 -114.18501 -38.65295 66.63161 -74.90505 22.56392 9.73679 -8.04519 22.78852 7.67011 -9.38043 85.62238 -1.43752 70.02251 12.13321 32.88047 106.04801 22.46859 11.39918 2.37917 6.01764 0.80181 7.17871 -364.65677 7.26739 401.69641 1.51146 0.02803 -0.03621 -6.01016 -21.52677 -59.96711 -19.15278 5.46012 14.37437 37.71014 -1.94638 -35.59481 4.02960 -0.00290 0.00425 -38.06151 -38.10886 20.84635 
-253.12781 92.31040 -183.08665 10.95539 -2.43968 74.04646 -11.09548 21.81153 -0.44803 0.00573 0.00442 -0.00841 -0.10479 7.30209 8.20199 6.58342 8.91106 -4.63713 -140.97299 -55.82195 -112.43026 -36.08882 66.02399 -77.43568 22.58378 9.64360 -7.50061 22.49756 7.64793 -9.04939 85.45901 -1.58933 69.94411 12.10736 33.13873 106.53044 22.18770 11.25764 2.52815 10.01539 2.11413 1.29968 -370.40005 2.81470 406.83353 3.74122 0.02541 -0.01770 -4.44896 -19.46034 -58.75796 -18.20191 4.71557 14.16533 37.59140 -0.81261 -35.65118 4.18143 -0.00135 0.00350 -38.63388 -38.80866 19.89770 
-253.12646 92.20258 -182.81168 10.70271 -2.90526 74.24729 -9.63719 21.92517 -1.24077 0.00252 0.00450 -0.00693 -0.12730 7.05112 8.14787 5.65407 8.84448 -4.23040 -138.15593 -55.75077 -110.30405 -33.57895 64.99039 -79.78732 22.29325 9.23482 -7.95269 22.09133 7.65183 -8.61225 85.26047 -1.70633 69.84085 11.95275 33.33544 107.04651 21.73425 11.27651 2.46505 14.20905 2.34363 -4.98908 -376.17804 -0.87255 412.14328 5.84662 0.02068 0.00095 -3.76317 -19.87532 -59.06003 -17.27933 3.95669 13.92945 37.57730 0.48120 -35.97123 4.21818 -0.00057 0.00256 -39.10671 -39.73061 19.08712 
-253.19406 92.05292 -182.53810 10.54922 -3.34936 74.39087 -8.28035 22.06576 -1.95825 -0.00042 0.00425 -0.00525 -0.08724 6.79632 8.05700 4.52590 8.77351 -3.60099 -126.99984 -54.99739 -102.35842 -27.37631 59.68127 -84.44391 22.24207 9.10838 -7.70607 21.62319 7.66747 -8.07964 85.05257 -1.82978 69.73181 11.72448 33.48679 107.54923 21.43595 11.17007 2.61592 17.82539 2.18641 -10.71611 -381.09964 -4.26781 416.72452 7.64317 0.01560 0.01135 -2.73255 -19.85568 -58.54943 -16.42289 3.17178 13.64829 37.67660 1.89580 -36.51390 4.17460 -0.00058 0.00167 -39.48079 -40.79948 18.38722 
-253.28032 91.84853 -182.31842 10.47646 -3.76568 74.48928 -7.04257 22.22660 -2.59271 -0.00254 0.00471 -0.00378 0.02494 6.53414 7.92117 3.47508 8.66356 -2.97191 -119.03062 -53.98732 -96.70350 -23.88982 55.60218 -86.95832 21.99211 8.83476 -8.05417 21.15283 7.67776 -7.48814 84.81803 -1.97643 69.62141 11.47169 33.59676 108.00802 21.04649 11.17616 2.65359 21.02430 1.63969 -15.85047 -384.74741 -7.52194 420.77441 8.98439 0.01456 0.00522 -1.97820 -19.80902 -58.50660 -15.70449 2.38266 13.32562 37.88903 3.40430 -37.22312 4.10659 -0.00104 0.00102 -39.73146 -41.99276 17.83060 
-253.33832 91.59319 -182.18018 10.47452 -4.14275 74.55235 -5.93657 22.40183 -3.14048 -0.00409 0.00514 -0.00254 0.20574 6.26398 7.73804 2.52822 8.51995 -2.39255 -113.23907 -52.91579 -92.64767 -21.70885 52.36705 -88.40018 21.82301 8.72486 -7.94675 20.69422 7.68179 -6.85793 84.57066 -2.16926 69.51550 11.22984 33.66724 108.40863 20.75457 11.12893 2.82654 23.81935 0.78238 -20.37504 -387.54736 -10.27484 424.44400 9.90300 0.01572 0.00320 -1.24983 -19.44814 -58.42753 -15.17230 1.62117 12.96816 38.20206 4.99441 -38.04668 4.05726 -0.00150 0.00064 -39.86050 -43.30107 17.40230 
-253.35776 91.30531 -182.11462 10.53118 -4.46702 74.59762 -4.97031 22.58166 -3.61015 -0.00523 0.00543 -0.00159 0.44624 5.98393 7.51072 1.66343 8.35802 -1.85851 -108.89778 -51.80614 -89.68677 -20.22356 49.70652 -89.20116 21.50002 8.52644 -8.21842 20.25120 7.68569 -6.20407 84.33033 -2.42236 69.42179 11.02081 33.69733 108.74102 20.41063 11.14832 2.92338 26.11990 -0.18782 -24.29925 -389.93506 -12.32080 427.63132 10.32977 0.00267 0.00198 -0.53288 -19.51905 -58.33926 -14.83514 0.90057 12.57373 38.59548 6.65438 -38.95140 4.04007 -0.00163 0.00042 -39.88346 -44.72209 17.09846 
-253.36166 91.00798 -182.10481 10.62434 -4.73483 74.64966 -4.13801 22.75336 -4.02105 -0.00611 0.00568 -0.00090 0.73630 5.68798 7.24719 0.86619 8.19093 -1.37110 -105.54406 -50.65784 -87.49847 -19.13133 47.43481 -89.57260 21.21933 8.42248 -8.21925 19.82487 7.69505 -5.53868 84.11893 -2.73470 69.34513 10.85163 33.69284 109.00809 20.13742 11.11937 3.08654 27.68651 -1.65509 -26.59011 -392.19574 -12.55903 429.72131 10.25811 0.00030 -0.00002 0.18303 -19.97120 -58.16673 -14.66866 0.20666 12.13076 39.06042 8.36183 -39.92460 4.03817 -0.00159 0.00026 -39.82067 -46.23547 16.92208 
-253.36600 90.72161 -182.13728 10.73628 -4.94160 74.72537 -3.43974 22.91051 -4.38547 -0.00678 0.00595 -0.00039 1.06455 5.36797 6.95828 0.13193 8.02733 -0.93244 -102.88246 -49.47689 -85.86519 -18.26808 45.44016 -89.66396 20.85267 8.27718 -8.44784 19.41573 7.71152 -4.87248 83.95300 -3.09070 69.28932 10.72283 33.65786 109.21095 19.86018 11.10745 3.18577 28.58515 -3.26510 -27.37425 -394.22174 -11.26221 430.79169 9.74747 0.00030 -0.00395 0.78433 -20.72415 -58.07191 -14.64358 -0.47924 11.63544 39.59084 10.08345 -40.96212 4.02425 -0.00159 0.00005 -39.67793 -47.81007 16.89756 
-253.36646 90.45988 -182.20294 10.85793 -5.08506 74.83004 -2.87863 23.05411 -4.70467 -0.00722 0.00623 -0.00005 1.41848 5.01812 6.65576 -0.53732 7.87154 -0.54582 -100.72448 -48.28254 -84.63650 -17.54363 43.65710 -89.57555 20.52980 8.20339 -8.50846 19.03087 7.73204 -4.22307 83.83025 -3.45840 69.25334 10.62675 33.59079 109.35893 19.66550 11.06238 3.30728 28.93109 -4.84128 -26.82722 -395.86441 -8.70498 430.98865 8.90800 0.00126 -0.00713 1.26372 -21.55889 -58.03290 -14.73432 -1.16027 11.09598 40.17340 11.78441 -42.05385 3.98064 -0.00171 -0.00023 -39.44299 -49.40875 17.04678 
